<?xml version="1.0" encoding="utf-8"?>
<!-- Generator: Adobe Illustrator 27.2.0, SVG Export Plug-In . SVG Version: 6.00 Build 0)  -->
<svg version="1.1" id="Calque_1" xmlns="http://www.w3.org/2000/svg" xmlns:xlink="http://www.w3.org/1999/xlink" x="0px" y="0px"
	 viewBox="0 0 504 504" style="enable-background:new 0 0 504 504;" xml:space="preserve">
<style type="text/css">
	.st0{fill:#231F20;}
	.st1{fill:#FFFFFF;}
	.st2{fill:#F05A26;}
</style>
<g>
	<path class="st2" d="M367.76,219.84c-4.14-2.34-5.84-5-6.4-9.53c-5.1-40.99-36.44-71.78-80.64-79.56
		c-37.95-6.68-80.61,13.49-98.78,48.31c-5.58,10.69-10.44,16.51-24.32,18.62c-31.57,4.81-53,34.42-48.4,64.15
		c4.81,31.04,25.29,49.84,58.76,52.06c-2.17-3.36-3.65-7.16-4.09-11.32c-0.36-3.44-0.08-7.09,1.09-10.89
		c0.57-1.86,1.44-3.56,2.77-4.97c2.13-2.26,4.33-2.07,6,0.53c0.34,0.53,0.66,1.1,0.88,1.69c2.8,7.65,8.39,11.49,16.15,11.93
		c8.46,0.48,14.48-3.73,18.74-10.99c1.81-3.08,2.03-6.86,1.36-10.93c-13.06-13.68-21.13-32.17-21.13-52.58
		c0-42.08,34.11-76.2,76.2-76.2c42.08,0,76.2,34.11,76.2,76.2c0,21.74-9.15,41.3-23.75,55.18c-0.18,1.44-0.19,2.8,0,4.03
		c1.06,6.9,4.36,12.19,11.03,14.68c7.12,2.65,13.88,2.39,19.94-2.92c3.1-2.71,5.37-6.14,8-9.27c3.78-4.49,6.84-4.02,8.74,1.53
		c0.32,0.93,0.56,1.92,0.77,2.95c1.01,5.01,0.66,11.04-1.3,16.58c13.48-6.05,23.46-17.14,27.8-31.82
		C400,254.84,390.25,232.55,367.76,219.84z"/>
	<path class="st1" d="M366.85,292.56c-0.21-1.02-0.45-2.02-0.77-2.95c-1.9-5.55-4.96-6.02-8.74-1.53c-2.63,3.12-4.9,6.56-8,9.27
		c-6.06,5.3-12.82,5.57-19.94,2.92c-6.67-2.48-9.97-7.78-11.03-14.68c-0.19-1.23-0.17-2.59,0-4.03
		c14.6-13.88,23.75-33.44,23.75-55.18c0-42.08-34.11-76.2-76.2-76.2c-42.08,0-76.2,34.11-76.2,76.2c0,20.41,8.07,38.9,21.13,52.58
		c0.66,4.07,0.44,7.85-1.36,10.93c-4.26,7.26-10.28,11.47-18.74,10.99c-7.75-0.44-13.35-4.29-16.15-11.93
		c-0.22-0.59-0.54-1.16-0.88-1.69c-1.67-2.59-3.87-2.79-6-0.53c-1.33,1.41-2.21,3.11-2.77,4.97c-1.16,3.8-1.45,7.45-1.09,10.89
		c0.43,4.16,1.92,7.96,4.09,11.32c0.82,0.05,1.61,0.15,2.44,0.18c28.64,1.18,57.37,0.24,86.06,0.24c28.04,0,56.08,0.04,84.11-0.02
		c9.15-0.02,17.57-1.84,24.96-5.16C367.51,303.61,367.86,297.58,366.85,292.56z"/>
	<g>
		<g>
			<path class="st2" d="M232.4,259.02c-5.36,0-9.7,4.45-9.7,9.93c0,5.48,4.34,9.93,9.7,9.93s9.7-4.45,9.7-9.93
				C242.11,263.47,237.76,259.02,232.4,259.02z M232.45,263.23c-0.16,0.27-0.51,0.6-0.83,0.64c-0.46,0.07-0.91,0.18-1.35,0.35
				c-0.23,0.11-0.46,0.24-0.67,0.39c-0.15,0.13-0.29,0.26-0.41,0.41c-0.09,0.13-0.17,0.27-0.24,0.41c-0.04,0.11-0.08,0.23-0.11,0.34
				c-0.18,0.76-1,1.14-1.72,0.97c-0.33-0.08-0.66-0.35-0.83-0.64c-0.19-0.32-0.23-0.71-0.14-1.07c0.51-2.18,2.62-3.55,4.73-3.85
				c0.25-0.07,0.49-0.07,0.74,0c0.11,0.05,0.22,0.09,0.33,0.14c0.32,0.17,0.53,0.5,0.64,0.83
				C232.7,262.49,232.63,262.94,232.45,263.23z"/>
			<path class="st1" d="M228.86,265.61c0.03-0.06,0.06-0.12,0.09-0.18c0.02-0.05,0.03-0.11,0.05-0.16
				C228.95,265.38,228.9,265.49,228.86,265.61z"/>
			<path class="st1" d="M229.08,265.14c0.03-0.04,0.07-0.08,0.11-0.12c0.04-0.05,0.07-0.11,0.11-0.16
				C229.23,264.95,229.16,265.04,229.08,265.14z"/>
			<path class="st1" d="M229.47,264.7c0.04-0.03,0.09-0.06,0.13-0.09c0.05-0.04,0.1-0.09,0.15-0.13
				C229.66,264.55,229.56,264.62,229.47,264.7z"/>
			<path class="st1" d="M230.12,264.27c0.05-0.02,0.1-0.03,0.15-0.05c0.06-0.03,0.12-0.06,0.19-0.09
				C230.35,264.18,230.23,264.22,230.12,264.27z"/>
		</g>
		<g>
			<path class="st2" d="M281.14,267.17c-1.01-5.39-6.1-8.96-11.36-7.98c-5.27,0.99-8.72,6.15-7.71,11.55
				c1.01,5.39,6.1,8.96,11.36,7.98C278.69,277.73,282.15,272.56,281.14,267.17z M271.32,263.23c-0.16,0.27-0.51,0.6-0.83,0.64
				c-0.46,0.07-0.91,0.18-1.35,0.35c-0.23,0.11-0.46,0.24-0.67,0.39c-0.15,0.13-0.29,0.26-0.41,0.41c-0.09,0.13-0.17,0.27-0.24,0.41
				c-0.04,0.11-0.08,0.23-0.11,0.34c-0.18,0.76-1,1.14-1.72,0.97c-0.33-0.08-0.66-0.35-0.83-0.64c-0.19-0.32-0.23-0.71-0.14-1.07
				c0.51-2.18,2.62-3.55,4.73-3.85c0.25-0.07,0.49-0.07,0.74,0c0.11,0.05,0.22,0.09,0.33,0.14c0.32,0.17,0.53,0.5,0.64,0.83
				C271.57,262.49,271.49,262.94,271.32,263.23z"/>
			<path class="st1" d="M268.33,264.7c0.04-0.03,0.09-0.06,0.13-0.09c0.05-0.04,0.1-0.09,0.15-0.13
				C268.52,264.55,268.43,264.62,268.33,264.7z"/>
			<path class="st1" d="M267.72,265.61c0.03-0.06,0.06-0.12,0.09-0.18c0.02-0.05,0.03-0.11,0.05-0.16
				C267.81,265.38,267.77,265.49,267.72,265.61z"/>
			<path class="st1" d="M267.95,265.14c0.03-0.04,0.07-0.08,0.11-0.12c0.04-0.05,0.07-0.11,0.11-0.16
				C268.09,264.95,268.02,265.04,267.95,265.14z"/>
			<path class="st1" d="M268.99,264.27c0.05-0.02,0.1-0.03,0.15-0.05c0.06-0.03,0.12-0.06,0.19-0.09
				C269.21,264.18,269.1,264.22,268.99,264.27z"/>
		</g>
	</g>
	<path class="st2" d="M340.59,314.3c-28.04,0.06-56.08,0.01-84.11,0.02c-28.69,0-57.42,0.95-86.06-0.24
		c-0.83-0.03-1.62-0.13-2.44-0.18c0.2,0.32,0.38,0.65,0.59,0.96c4.51,6.4,11.72,10.94,19.7,12.46c4.76,0.91,9.3,0.06,13.7-1.45l0,0
		c2.18-0.8,4.27-0.41,5.14,0.38c0.87,0.79,1.32,1.97,1.33,2.66c0,0.66-0.05,1.65-0.76,3.44c0,0,0,0.01,0,0.01
		c-2.09,4.86-2.94,10.03-2.38,15.51c0.79,7.78,4.24,13.86,11.32,17.42c3.31,2.14,6.94,3.29,10.84,3.35
		c2.36,0.03,5.12,0.53,6.55-2.01c1.45-2.58-0.7-4.41-2-6.31c0-0.01-0.01-0.01-0.01-0.02c-0.09,0.03-0.18,0.05-0.27,0.05
		c-0.47,0-0.85-0.38-0.85-0.85c0-0.22,0.09-0.43,0.23-0.58c-3.2-5.25-4.11-10.59,0.08-16.2c1.34-1.21,2.68-2.41,4.01-3.63
		c6.5-5.96,13.96-11,17.97-19.77c0.07,3.32-0.31,6.22-0.87,9.1c-1.39,7.16-3.54,14.17-3.48,21.61c0.08,10.87,7.47,21.02,17.7,23.86
		c7.06,1.96,14.6-0.8,18.7-6.86c1.68-2.48,1.97-5.49,0.6-7.17c-1.66-2.03-3.45-1.04-5.35-0.29c-2.47,0.99-5.1-0.2-6.38-2.61
		c-1.68-3.17-1-6.31,0.46-9.22c3.93-7.86,7.59-15.75,6.18-25.09c2.91,6.02,7.49,10.11,13.01,13.14c4.38,2.41,8.37,5.27,11.66,9.11
		c0.48,0.61,0.96,1.22,1.44,1.82c3.67,4.81,3.73,10.07,1.94,15.6c-0.36,1.12-0.55,2.32-0.69,3.5c-0.33,2.99,0.76,4.3,3.66,4.46
		c2.56,0.14,5.02-0.42,7.25-1.67c7.57-4.26,12.56-10.76,15.35-19.03c0.86-2.54,1.03-5.27-0.03-7.83c-1.14-2.76-2.46-5.42-4.26-7.78
		c-0.18-0.3-0.5-0.7-1-1.24c-0.17-0.19-0.34-0.37-0.49-0.56c-1.17-1.43-1.76-2.92-1.11-4c0.48-0.81,1.67-1.39,3.83-1.52
		c0.87-0.05,1.9-0.03,3.1,0.07c0.11,0.01,0.22,0.01,0.33,0.02c4.25,0.16,8.41-0.61,12.58-1.37c7.21-1.31,12.28-5.37,15.54-10.52
		c1.13-1.79,2.03-3.72,2.73-5.71C358.16,312.46,349.74,314.28,340.59,314.3z M232.58,362.45c0.3,0,0.54,0.24,0.54,0.54
		s-0.24,0.54-0.54,0.54c-0.3,0-0.54-0.24-0.54-0.54S232.28,362.45,232.58,362.45z M226.4,354.26c0.4-0.4,1.04-0.4,1.43,0
		s0.4,1.04,0,1.43s-1.04,0.4-1.43,0S226,354.65,226.4,354.26z M229.84,361.29c0.47,0,0.85,0.38,0.85,0.85
		c0,0.47-0.38,0.85-0.85,0.85c-0.47,0-0.85-0.38-0.85-0.85C228.99,361.67,229.37,361.29,229.84,361.29z M229.09,358.58
		c0,0.83-0.67,1.49-1.49,1.49s-1.49-0.67-1.49-1.49c0-0.83,0.67-1.49,1.49-1.49S229.09,357.76,229.09,358.58z"/>
	<g>
		<circle class="st2" cx="356.81" cy="292.59" r="1.79"/>
		<circle class="st2" cx="352.68" cy="294.04" r="1.22"/>
		<circle class="st2" cx="360.78" cy="285.65" r="0.65"/>
		<circle class="st2" cx="360.45" cy="289.08" r="1.02"/>
		<circle class="st2" cx="356.89" cy="287.5" r="1.02"/>
	</g>
</g>
</svg>
