<?xml version="1.0" standalone="no"?>
<!DOCTYPE svg PUBLIC "-//W3C//DTD SVG 20010904//EN"
 "http://www.w3.org/TR/2001/REC-SVG-20010904/DTD/svg10.dtd">
<svg version="1.0" xmlns="http://www.w3.org/2000/svg"
 width="2244" height="2104" viewBox="0 0 1244 1104">

<g transform="translate(0.000000,1104.000000) scale(0.100000,-0.100000)"
fill="#F97316" stroke="none">
<path d="M6302 8489 c-291 -31 -603 -146 -858 -318 -240 -161 -412 -346 -554
-596 -142 -249 -224 -311 -473 -361 -195 -39 -320 -86 -444 -167 -282 -187
-455 -461 -494 -787 -22 -189 27 -441 124 -635 95 -190 259 -357 446 -453 58
-31 238 -102 255 -102 2 0 6 42 8 93 4 59 13 112 27 149 41 107 151 171 159
93 4 -33 28 -65 48 -65 21 0 32 -30 27 -70 -6 -40 9 -59 49 -63 13 -2 45 -17
73 -35 70 -46 116 -57 230 -57 88 0 107 3 158 27 70 33 164 121 200 186 78
143 53 280 -118 641 -166 351 -209 473 -236 660 -15 106 -7 350 15 450 56 256
181 491 361 680 236 247 523 403 869 474 96 19 141 22 331 21 246 0 334 -13
535 -80 677 -225 1110 -865 1030 -1524 -25 -205 -62 -306 -240 -665 -71 -143
-143 -303 -161 -355 -28 -84 -31 -104 -27 -180 7 -144 72 -250 189 -309 160
-80 332 -64 463 44 24 19 52 35 63 35 28 0 43 19 43 55 0 22 10 40 33 63 17
17 35 31 40 32 4 0 14 0 23 0 8 0 22 16 30 35 11 27 20 35 40 35 36 0 81 -49
96 -104 7 -25 15 -46 19 -46 12 0 99 101 142 164 155 228 202 543 118 788 -69
201 -213 377 -416 509 -129 84 -133 87 -160 127 -17 26 -30 74 -46 162 -65
374 -225 672 -499 933 -133 126 -258 214 -433 302 -352 177 -727 251 -1085
214z"/>
<path d="M6048 6140 c-89 -16 -160 -101 -160 -195 0 -176 213 -265 337 -141
140 141 19 369 -177 336z"/>
<path d="M6870 6140 c-114 -20 -189 -132 -160 -241 47 -177 285 -208 368 -47
76 148 -46 316 -208 288z"/>
<path d="M8605 5215 c-72 -55 -215 -125 -310 -154 -164 -51 -134 -50 -1940
-53 -1739 -3 -1784 -2 -1965 36 -36 8 -66 12 -68 11 -2 -2 3 -31 12 -64 59
-232 288 -416 554 -447 72 -8 189 14 298 56 96 37 125 30 121 -27 -2 -21 -17
-67 -35 -103 -46 -95 -65 -179 -66 -295 0 -214 95 -358 298 -451 61 -28 197
-50 249 -40 37 7 77 46 77 75 0 32 -38 79 -67 83 -34 4 -57 45 -45 80 11 28
-3 63 -40 100 -16 15 -28 38 -28 53 0 24 31 65 49 65 6 0 20 18 32 40 14 24
80 90 158 158 170 147 248 224 286 283 17 26 35 55 42 65 24 39 13 -83 -22
-248 -50 -225 -62 -348 -47 -441 29 -169 136 -313 291 -390 81 -40 89 -42 175
-42 78 0 99 4 151 28 143 66 226 207 160 272 -29 29 -42 30 -104 8 -44 -15
-49 -15 -84 2 -46 22 -77 77 -77 138 0 30 12 68 41 128 95 194 138 350 126
456 -4 39 -3 44 7 29 64 -106 142 -179 275 -258 117 -69 193 -129 249 -197 28
-34 59 -61 77 -67 42 -13 55 -54 31 -99 -13 -23 -16 -43 -12 -62 19 -78 19
-84 -7 -111 -19 -20 -28 -43 -33 -83 -9 -76 12 -99 90 -99 68 0 120 19 194 69
166 113 309 352 286 479 -8 46 -56 143 -100 203 -29 39 -79 167 -70 176 1 2
27 -1 56 -7 159 -30 445 15 560 88 147 94 236 261 247 463 8 144 3 151 -72 94z"/>
<path d="M5598 2552 c-45 -34 -47 -37 -31 -54 21 -23 36 -23 58 2 10 11 26 20
35 20 9 0 25 -9 35 -20 23 -25 37 -25 59 -1 16 17 14 20 -36 55 -29 20 -58 36
-63 35 -6 0 -31 -17 -57 -37z"/>
<path d="M7940 2390 l0 -200 45 0 44 0 3 88 3 87 35 0 35 0 3 -87 3 -88 44 0
45 0 0 100 c0 94 -2 103 -25 125 -29 30 -98 35 -127 8 -17 -15 -18 -13 -18 75
l0 92 -45 0 -45 0 0 -200z"/>
<path d="M4450 2375 l0 -185 45 0 45 0 0 185 0 185 -45 0 -45 0 0 -185z"/>
<path d="M6595 2388 c-15 -94 -29 -177 -32 -185 -4 -10 7 -13 44 -13 l50 0 13
100 c7 55 16 98 19 94 3 -3 22 -47 42 -97 51 -127 63 -128 114 -2 22 53 42 98
46 100 3 2 12 -41 19 -95 l12 -100 47 0 48 0 -29 177 c-16 98 -33 182 -37 186
-5 5 -27 6 -50 2 -40 -7 -40 -7 -72 -91 -17 -46 -35 -84 -39 -84 -4 0 -22 40
-39 88 l-32 89 -48 2 -48 1 -28 -172z"/>
<path d="M5900 2475 c0 -24 -5 -35 -15 -35 -10 0 -15 -11 -15 -35 0 -24 5 -35
15 -35 12 0 15 -17 15 -90 l0 -90 45 0 45 0 0 84 c0 80 1 85 23 88 18 2 23 10
25 41 3 34 1 37 -22 37 -23 0 -26 4 -26 35 0 35 0 35 -45 35 -45 0 -45 0 -45
-35z"/>
<path d="M7460 2475 c0 -24 -5 -35 -15 -35 -10 0 -15 -11 -15 -35 0 -24 5 -35
15 -35 12 0 15 -17 15 -90 l0 -90 45 0 45 0 0 90 c0 87 1 90 23 87 19 -2 22 3
25 36 3 34 1 37 -22 37 -23 0 -26 4 -26 35 0 35 0 35 -45 35 -45 0 -45 0 -45
-35z"/>
<path d="M5611 2440 c-18 -4 -48 -22 -65 -39 -27 -28 -31 -38 -31 -87 0 -51 3
-58 37 -89 63 -59 156 -59 214 -1 80 80 34 205 -81 219 -22 3 -55 2 -74 -3z
m97 -103 c32 -66 -62 -109 -97 -46 -13 24 -13 29 3 53 24 37 75 33 94 -7z"/>
<path d="M6180 2443 c-32 -6 -67 -38 -75 -70 -9 -36 18 -70 65 -83 38 -10 57
-38 28 -41 -25 -2 -53 3 -62 12 -16 15 -23 11 -36 -22 -11 -26 -11 -32 1 -40
26 -16 97 -21 133 -9 90 29 87 138 -5 157 -16 3 -32 10 -35 15 -10 15 17 27
46 21 21 -4 28 0 38 21 6 14 8 27 4 29 -14 8 -77 14 -102 10z"/>
<path d="M7137 2431 c-44 -22 -69 -74 -64 -130 6 -56 34 -92 85 -111 37 -13
45 -12 77 3 19 9 35 12 35 7 0 -6 20 -10 45 -10 l45 0 0 125 0 125 -45 0 c-25
0 -45 -5 -45 -11 0 -5 -5 -7 -12 -3 -30 18 -89 21 -121 5z m117 -77 c19 -18
21 -65 4 -82 -30 -30 -98 -1 -98 41 0 48 61 74 94 41z"/>
<path d="M7735 2436 c-109 -48 -113 -192 -6 -239 35 -15 53 -18 80 -11 33 8
36 13 39 47 3 36 2 38 -17 27 -26 -14 -69 -3 -81 20 -27 51 7 96 65 87 34 -6
35 -5 35 29 0 28 -5 36 -26 44 -33 13 -53 12 -89 -4z"/>
<path d="M4640 2315 l0 -125 45 0 45 0 0 85 c0 76 2 85 22 96 18 10 24 8 40
-11 14 -17 18 -40 18 -96 l0 -74 40 0 40 0 0 73 c0 83 13 111 51 105 23 -3 24
-6 27 -90 l3 -88 44 0 45 0 0 99 c0 84 -3 102 -21 125 -26 33 -84 36 -122 5
l-27 -20 -22 20 c-26 25 -84 28 -116 5 -20 -14 -22 -14 -22 0 0 12 -11 16 -45
16 l-45 0 0 -125z"/>
<path d="M5160 2255 l0 -185 45 0 45 0 0 69 0 69 31 -15 c85 -42 180 40 164
143 -9 64 -52 104 -111 104 -25 0 -54 -5 -65 -10 -13 -7 -19 -7 -19 0 0 5 -20
10 -45 10 l-45 0 0 -185z m180 95 c24 -24 25 -38 4 -68 -36 -51 -117 -8 -95
51 16 41 59 49 91 17z"/>
</g>
</svg>
