<?xml version="1.0" encoding="UTF-8"?><svg id="Calque_1" xmlns="http://www.w3.org/2000/svg" viewBox="0 0 286.8 245.05"><defs><style>.cls-1{fill:#f05a26;}.cls-2{fill:#fff;}</style></defs><path class="cls-1" d="m259.16,90.36c-4.14-2.34-5.84-5-6.4-9.53C247.66,39.85,216.32,9.06,172.12,1.27c-37.95-6.68-80.61,13.49-98.78,48.31-5.58,10.69-10.44,16.51-24.32,18.62C17.45,73.02-3.98,102.63.62,132.36c4.81,31.04,25.29,49.84,58.76,52.06-2.17-3.36-3.65-7.16-4.09-11.32-.36-3.44-.08-7.09,1.09-10.89.57-1.86,1.44-3.56,2.77-4.97,2.13-2.26,4.33-2.07,6,.53.34.53.66,1.1.88,1.69,2.8,7.65,8.39,11.49,16.15,11.93,8.46.48,14.48-3.73,18.74-10.99,1.81-3.08,2.03-6.86,1.36-10.93-13.06-13.68-21.13-32.17-21.13-52.58,0-42.08,34.11-76.2,76.2-76.2s76.2,34.11,76.2,76.2c0,21.74-9.15,41.3-23.75,55.18-.18,1.44-.19,2.8,0,4.03,1.06,6.9,4.36,12.19,11.03,14.68,7.12,2.65,13.88,2.39,19.94-2.92,3.1-2.71,5.37-6.14,8-9.27,3.78-4.49,6.84-4.02,8.74,1.53.32.93.56,1.92.77,2.95,1.01,5.01.66,11.04-1.3,16.58,13.48-6.05,23.46-17.14,27.8-31.82,6.65-22.49-3.1-44.77-25.59-57.49Z"/><path class="cls-2" d="m258.26,163.09c-.21-1.02-.45-2.02-.77-2.95-1.9-5.55-4.96-6.02-8.74-1.53-2.63,3.12-4.9,6.56-8,9.27-6.06,5.3-12.82,5.57-19.94,2.92-6.67-2.48-9.97-7.78-11.03-14.68-.19-1.23-.17-2.59,0-4.03,14.6-13.88,23.75-33.44,23.75-55.18,0-42.08-34.11-76.2-76.2-76.2s-76.2,34.11-76.2,76.2c0,20.41,8.07,38.9,21.13,52.58.66,4.07.44,7.85-1.36,10.93-4.26,7.26-10.28,11.47-18.74,10.99-7.75-.44-13.35-4.29-16.15-11.93-.22-.59-.54-1.16-.88-1.69-1.67-2.59-3.87-2.79-6-.53-1.33,1.41-2.21,3.11-2.77,4.97-1.16,3.8-1.45,7.45-1.09,10.89.43,4.16,1.92,7.96,4.09,11.32.82.05,1.61.15,2.44.18,28.64,1.18,57.37.24,86.06.24,28.04,0,56.08.04,84.11-.02,9.15-.02,17.57-1.84,24.96-5.16,1.96-5.54,2.31-11.57,1.3-16.58Z"/><g><g><path class="cls-1" d="m123.8,129.55c-5.36,0-9.7,4.45-9.7,9.93s4.34,9.93,9.7,9.93,9.7-4.45,9.7-9.93-4.34-9.93-9.7-9.93Zm.05,4.21c-.16.27-.51.6-.83.64-.46.07-.91.18-1.35.35-.23.11-.46.24-.67.39-.15.13-.29.26-.41.41-.09.13-.17.27-.24.41-.04.11-.08.23-.11.34-.18.76-1,1.14-1.72.97-.33-.08-.66-.35-.83-.64-.19-.32-.23-.71-.14-1.07.51-2.18,2.62-3.55,4.73-3.85.25-.07.49-.07.74,0,.11.05.22.09.33.14.32.17.53.5.64.83.11.34.03.78-.14,1.07Z"/><path class="cls-2" d="m120.26,136.13c.03-.06.06-.12.09-.18.02-.05.03-.11.05-.16-.05.11-.09.22-.14.33Z"/><path class="cls-2" d="m120.49,135.66s.07-.08.11-.12c.04-.05.07-.11.11-.16-.07.09-.15.19-.22.28Z"/><path class="cls-2" d="m120.87,135.22s.09-.06.13-.09c.05-.04.1-.09.15-.13-.09.07-.19.15-.28.22Z"/><path class="cls-2" d="m121.53,134.8s.1-.03.15-.05c.06-.03.12-.06.19-.09-.11.05-.22.09-.33.14Z"/></g><g><path class="cls-1" d="m172.54,137.7c-1.01-5.39-6.1-8.96-11.36-7.98-5.27.99-8.72,6.15-7.71,11.55,1.01,5.39,6.1,8.96,11.36,7.98,5.27-.99,8.72-6.15,7.71-11.55Zm-9.82-3.94c-.16.27-.51.6-.83.64-.46.07-.91.18-1.35.35-.23.11-.46.24-.67.39-.15.13-.29.26-.41.41-.09.13-.17.27-.24.41-.04.11-.08.23-.11.34-.18.76-1,1.14-1.72.97-.33-.08-.66-.35-.83-.64-.19-.32-.23-.71-.14-1.07.51-2.18,2.62-3.55,4.73-3.85.25-.07.49-.07.74,0,.11.05.22.09.33.14.32.17.53.5.64.83.11.34.03.78-.14,1.07Z"/><path class="cls-2" d="m159.73,135.22s.09-.06.13-.09c.05-.04.1-.09.15-.13-.09.07-.19.15-.28.22Z"/><path class="cls-2" d="m159.12,136.13c.03-.06.06-.12.09-.18.02-.05.03-.11.05-.16-.05.11-.09.22-.14.33Z"/><path class="cls-2" d="m159.35,135.66s.07-.08.11-.12c.04-.05.07-.11.11-.16-.07.09-.15.19-.22.28Z"/><path class="cls-2" d="m160.39,134.8s.1-.03.15-.05c.06-.03.12-.06.19-.09-.11.05-.22.09-.33.14Z"/></g></g><path class="cls-1" d="m231.99,184.83c-28.04.06-56.08.01-84.11.02-28.69,0-57.42.95-86.06-.24-.83-.03-1.62-.13-2.44-.18.2.32.38.65.59.96,4.51,6.4,11.72,10.94,19.7,12.46,4.76.91,9.3.06,13.7-1.45h0c2.18-.8,4.27-.41,5.14.39.87.79,1.32,1.97,1.33,2.66,0,.66-.05,1.65-.76,3.44,0,0,0,0,0,.01-2.09,4.86-2.94,10.03-2.38,15.51.79,7.78,4.24,13.86,11.32,17.42,3.31,2.14,6.94,3.29,10.84,3.35,2.36.03,5.12.53,6.55-2.01,1.45-2.58-.7-4.41-2-6.31,0,0,0-.01-.01-.02-.09.03-.18.05-.27.05-.47,0-.85-.38-.85-.85,0-.22.09-.43.23-.58-3.2-5.25-4.11-10.59.08-16.2,1.34-1.21,2.68-2.41,4.01-3.63,6.5-5.96,13.96-11,17.97-19.77.07,3.32-.31,6.22-.87,9.1-1.39,7.16-3.54,14.17-3.48,21.61.08,10.87,7.47,21.02,17.7,23.86,7.06,1.96,14.6-.8,18.7-6.86,1.68-2.48,1.97-5.49.6-7.17-1.66-2.03-3.45-1.04-5.35-.29-2.47.99-5.1-.2-6.38-2.61-1.68-3.17-1-6.31.46-9.22,3.93-7.86,7.59-15.75,6.18-25.09,2.91,6.02,7.49,10.11,13.01,13.14,4.38,2.41,8.37,5.27,11.66,9.11.48.61.96,1.22,1.44,1.82,3.67,4.81,3.73,10.07,1.94,15.6-.36,1.12-.55,2.32-.69,3.5-.33,2.99.76,4.3,3.66,4.46,2.56.14,5.02-.41,7.25-1.67,7.57-4.26,12.56-10.76,15.35-19.03.86-2.54,1.03-5.27-.03-7.83-1.14-2.76-2.46-5.42-4.26-7.78-.18-.3-.5-.7-1-1.24-.17-.19-.34-.37-.49-.56-1.17-1.43-1.76-2.92-1.11-4,.48-.81,1.67-1.39,3.83-1.52.87-.05,1.9-.03,3.1.07.11,0,.22.01.33.02,4.25.16,8.41-.61,12.58-1.37,7.21-1.31,12.28-5.37,15.54-10.52,1.13-1.79,2.03-3.72,2.73-5.71-7.39,3.31-15.8,5.14-24.96,5.16Zm-108.01,48.15c.3,0,.54.24.54.54s-.24.54-.54.54-.54-.24-.54-.54.24-.54.54-.54Zm-6.18-8.19c.4-.4,1.04-.4,1.43,0s.4,1.04,0,1.43-1.04.4-1.43,0-.4-1.04,0-1.43Zm3.44,7.04c.47,0,.85.38.85.85s-.38.85-.85.85-.85-.38-.85-.85.38-.85.85-.85Zm-.75-2.71c0,.83-.67,1.49-1.49,1.49s-1.49-.67-1.49-1.49.67-1.49,1.49-1.49,1.49.67,1.49,1.49Z"/><g><circle class="cls-1" cx="248.22" cy="163.11" r="1.79"/><circle class="cls-1" cx="244.09" cy="164.56" r="1.22"/><circle class="cls-1" cx="252.18" cy="156.18" r=".65"/><circle class="cls-1" cx="251.85" cy="159.61" r="1.02"/><circle class="cls-1" cx="248.3" cy="158.03" r="1.02"/></g></svg>